<?xml version="1.0" encoding="utf-8"?>
<!-- Generator: Adobe Illustrator 22.0.1, SVG Export Plug-In . SVG Version: 6.00 Build 0)  -->
<svg version="1.1" id="Layer_1" xmlns="http://www.w3.org/2000/svg" xmlns:xlink="http://www.w3.org/1999/xlink" x="0px" y="0px"
	 viewBox="0 0 100 100" style="enable-background:new 0 0 100 100;" xml:space="preserve">
<style type="text/css">
	.st0{fill:#544265;}
	.st1{fill:#EDCB44;}
	.st2{opacity:0.5;fill:#E7B53D;}
	.st3{opacity:0.5;fill:#F0DF6C;}
	.st4{fill:#190D4A;}
	.st5{fill:#D5850F;}
	.st6{fill:#6785D4;}
	.st7{fill:#5979D2;}
	.st8{fill:#739BE0;}
	.st9{fill:#283041;}
	.st10{opacity:0.5;fill:#E66156;}
	.st11{fill:#0F97B7;}
	.st12{fill:#FFFFFF;}
	.st13{fill:#DDDDDD;}
	.st14{fill:#D2524C;}
	.st15{fill:#BA3F2F;}
	.st16{fill:#0D5656;}
	.st17{fill:#7AE4E9;}
	.st18{fill:#5CCAE0;}
	.st19{fill:#E16760;}
	.st20{fill:#87F9F9;}
	.st21{fill:#126664;}
	.st22{fill:#8697B1;}
	.st23{fill:#E7B53D;}
	.st24{fill:#F0DF6C;}
	.st25{fill:#697C93;}
	.st26{fill:#F4F4F4;}
	.st27{fill:#49D430;}
	.st28{fill:#40B71D;}
	.st29{fill:#48E034;}
	.st30{fill:#EFEFEF;}
	.st31{opacity:0.5;}
	.st32{fill:#9365AB;}
	.st33{fill:#4AC422;}
	.st34{fill:#E5E5E5;}
	.st35{opacity:0.6;}
	.st36{fill:#202733;}
	.st37{fill:none;}
</style>
<g>
	<g>
		<path class="st0" d="M61.1,41.2c6.1-1.3,15.4-5.2,19.8-9.4l2.3,3.5c-2.9,3.6-14.5,9.2-21.3,10.3c-1.2,0.2-2.4-0.7-2.6-1.9l0,0
			C59.2,42.5,59.9,41.4,61.1,41.2z"/>
		<path class="st4" d="M81.2,35.1c-3.2-4.3-2.8-10.4,0.9-14.3c0.7-0.8,1.6-1.4,2.4-1.9c0.9-0.5,2.1-0.2,2.7,0.6v0
			c1,1.3,0.6,3.1-0.8,4c-0.8,0.6-1.5,1.4-2.1,2.6c-0.5,1.1-0.7,2.3-0.4,3.5c1.1,4.7,6.1,6.3,9.5,3.8l0.1-0.1c1.3-0.9,3-0.6,3.9,0.6
			l0,0c0.6,0.8,0.5,2.1-0.3,2.8c-0.3,0.2-0.6,0.5-0.9,0.7C91.6,41,84.8,40,81.2,35.1z"/>
	</g>
	<g>
		<path class="st0" d="M38.9,42.6c-6.1-1.3-15.4-5.2-19.8-9.4l-2.3,3.5c2.9,3.6,14.5,9.2,21.3,10.3c1.2,0.2,2.4-0.7,2.6-1.9l0,0
			C40.8,44,40.1,42.9,38.9,42.6z"/>
		<path class="st4" d="M18.8,36.6c3.2-4.3,2.8-10.4-0.9-14.3c-0.7-0.8-1.6-1.4-2.4-1.9c-0.9-0.5-2.1-0.2-2.7,0.6l0,0
			c-1,1.3-0.6,3.1,0.8,4c0.8,0.6,1.5,1.4,2.1,2.6c0.5,1.1,0.7,2.3,0.4,3.5c-1.1,4.7-6.1,6.3-9.5,3.8l-0.1-0.1
			c-1.3-0.9-3-0.6-3.9,0.6l0,0c-0.6,0.8-0.5,2.1,0.3,2.8c0.3,0.2,0.6,0.5,0.9,0.7C8.4,42.5,15.2,41.4,18.8,36.6z"/>
	</g>
	<g>
		<g>
			<ellipse class="st4" cx="30" cy="69.8" rx="17.2" ry="19.9"/>
			<ellipse class="st0" cx="31.8" cy="69.8" rx="15.4" ry="19.9"/>
			<ellipse class="st17" cx="31.8" cy="69.8" rx="6.9" ry="8.9"/>
			<path class="st18" d="M34.3,61.5V63c0,5.1-4.1,9.2-9.2,9.2h0c0.8,3.8,3.5,6.6,6.6,6.6c3.8,0,6.9-4,6.9-8.9
				C38.7,66.1,36.9,62.8,34.3,61.5z"/>
		</g>
		<path class="st4" d="M44.9,59.9c2.5-12.2,2.5-24.8,0-37c2.9-0.6,5.8-1.2,8.7-1.8c2.8,13.4,2.8,27.2,0,40.6"/>
		<path class="st18" d="M21.6,18.5c0-4.5,3.7-8.2,8.2-8.2h39.3c4.5,0,8.2,3.7,8.2,8.2v0c0,4.5-3.7,8.2-8.2,8.2H29.9
			C25.3,26.7,21.6,23,21.6,18.5"/>
		<path class="st17" d="M21.6,18.5c0-4.5,3.7-8.2,8.2-8.2h13.5c4.5,0,8.2,3.7,8.2,8.2v0c0,4.5-3.7,8.2-8.2,8.2H29.9
			C25.3,26.7,21.6,23,21.6,18.5"/>
		<g>
			<g>
				<path class="st9" d="M28.9,14.1c-1.8,0-3.3,1.8-3.3,4.1c0,2.3,1.5,4.1,3.3,4.1c1.8,0,3.3-1.8,3.3-4.1
					C32.2,15.9,30.7,14.1,28.9,14.1z"/>
				<g>
					<circle class="st12" cx="28.7" cy="20.2" r="1.1"/>
					<circle class="st12" cx="30.2" cy="17.5" r="0.7"/>
				</g>
			</g>
		</g>
		<g>
			<path class="st9" d="M41,18.1c0,2.3,1.5,4.1,3.3,4.1c1.8,0,3.3-1.8,3.3-4.1c0-2.3-1.5-4.1-3.3-4.1C42.4,14.1,41,15.9,41,18.1"/>
			<circle class="st12" cx="44.3" cy="20.2" r="1.1"/>
			<circle class="st12" cx="42.8" cy="17.5" r="0.7"/>
		</g>
		<path class="st17" d="M77.6,66c0,13.1-12.6,17.6-28.1,17.6S21.3,79.2,21.3,66s12.6-32.8,28.1-32.8S77.6,52.9,77.6,66z"/>
		<path class="st18" d="M57.9,35.1v3.3c0,17.4-14.1,31.5-31.5,31.5h-4.7C24,80,35.6,83.7,49.5,83.7c15.5,0,28.1-4.5,28.1-17.6
			C77.6,55.4,69.3,40.4,57.9,35.1z"/>
		
			<ellipse transform="matrix(0.7941 -0.6077 0.6077 0.7941 -23.2211 34.0214)" class="st20" cx="38.6" cy="51.3" rx="10.5" ry="6.8"/>
		<g>
			<ellipse class="st4" cx="66.9" cy="69.8" rx="17.2" ry="19.9"/>
			<ellipse class="st0" cx="68.7" cy="69.8" rx="15.4" ry="19.9"/>
			<ellipse class="st17" cx="68.7" cy="69.8" rx="6.9" ry="8.9"/>
			<path class="st18" d="M71.2,61.5V63c0,5.1-4.1,9.2-9.2,9.2h0c0.8,3.8,3.5,6.6,6.6,6.6c3.8,0,6.9-4,6.9-8.9
				C75.6,66.1,73.8,62.8,71.2,61.5z"/>
		</g>
	</g>
	<g>
		<path class="st0" d="M61.1,41.2c6.1-1.3,15.4-5.2,19.8-9.4l2.3,3.5c-2.9,3.6-14.5,9.2-21.3,10.3c-1.2,0.2-2.4-0.7-2.6-1.9l0,0
			C59.2,42.5,59.9,41.4,61.1,41.2z"/>
		<path class="st4" d="M81.2,35.1c-3.2-4.3-2.8-10.4,0.9-14.3c0.7-0.8,1.6-1.4,2.4-1.9c0.9-0.5,2.1-0.2,2.7,0.6v0
			c1,1.3,0.6,3.1-0.8,4c-0.8,0.6-1.5,1.4-2.1,2.6c-0.5,1.1-0.7,2.3-0.4,3.5c1.1,4.7,6.1,6.3,9.5,3.8l0.1-0.1c1.3-0.9,3-0.6,3.9,0.6
			l0,0c0.6,0.8,0.5,2.1-0.3,2.8c-0.3,0.2-0.6,0.5-0.9,0.7C91.6,41,84.8,40,81.2,35.1z"/>
	</g>
</g>
</svg>